<?xml version="1.0" encoding="utf-8"?>
<!-- Generator: Adobe Illustrator 17.1.0, SVG Export Plug-In . SVG Version: 6.00 Build 0)  -->
<!DOCTYPE svg PUBLIC "-//W3C//DTD SVG 1.1//EN" "http://www.w3.org/Graphics/SVG/1.1/DTD/svg11.dtd">
<svg version="1.1" id="Layer_1" xmlns="http://www.w3.org/2000/svg" xmlns:xlink="http://www.w3.org/1999/xlink" x="0px" y="0px"
	 viewBox="0 0 39.5 36.5" enable-background="new 0 0 39.5 36.5" xml:space="preserve">
<g>
	<g>
		<path fill="#E20A13" d="M27.6,4.1c-3.4,0-6.3,1.7-7.8,4.2c-1.5-2.5-4.4-4.2-7.8-4.2c-5.1,0-7.8,4.4-7.8,8.8
			c0,10.2,14.5,19,15.1,19.4c0.2,0.1,0.3,0.1,0.5,0.1c0.2,0,0.3,0,0.5-0.1c0.6-0.4,15.1-9.2,15.1-19.4C35.4,8.5,32.7,4.1,27.6,4.1z
			 M19.8,30.3C17.2,28.7,6.1,21,6.1,12.9C6.1,9.6,7.9,6,11.9,6c3.3,0,6.8,2.2,6.8,5.9c0,0.5,0.4,1,1,1c0.5,0,1-0.4,1-1
			c0-3.6,3.5-5.9,6.8-5.9c4,0,5.9,3.5,5.9,6.8C33.4,21,22.3,28.6,19.8,30.3z"/>
	</g>
</g>
</svg>
