<?xml version="1.0" encoding="utf-8"?>
<!-- Generator: Adobe Illustrator 17.1.0, SVG Export Plug-In . SVG Version: 6.00 Build 0)  -->
<!DOCTYPE svg PUBLIC "-//W3C//DTD SVG 1.1//EN" "http://www.w3.org/Graphics/SVG/1.1/DTD/svg11.dtd">
<svg version="1.1" id="Layer_1" xmlns="http://www.w3.org/2000/svg" xmlns:xlink="http://www.w3.org/1999/xlink" x="0px" y="0px"
	 viewBox="0 0 785.1 86.8" enable-background="new 0 0 785.1 86.8" xml:space="preserve">
<g>
	<g>
		<path fill="#E20A13" d="M369,37.6c0-0.9,0-1.9,0.1-2.8c1.5,0.8,3.6,1.5,5.1,1.5c2.3,0,6.2-4.9,6.2-4.9l-0.8,8.8
			c0,0-0.6,4.4,4.5,5.8c5.1,1.4,7.7-2.5,7.7-2.5l-9.3,17.6C374.4,56.5,369,47.7,369,37.6z M415.3,57.4c-4.9,4.7-11.6,7.6-18.9,7.6
			c-3.1,0-6.1-0.5-8.9-1.5c2-3.7,7-13,10.8-20c4.9-8.8,10.2-12,10.2-12s-0.7,10.8-0.6,11.6c0.1,0.8,0.7,2.7,4.9,3.6
			c4.2,0.9,8.6-4.5,8.6-4.5s0.6,0.3-1.3,6.5C419.3,51.3,417.4,54.5,415.3,57.4z M409.8,13.8c8.3,4.7,13.9,13.6,13.9,23.9l0,0.5
			c-1-0.3-2.5-0.4-3.9-0.3c-2.1,0.3-6.6,4.5-6.6,4.5s0.6-3.7,0.8-6.5c0.1-2.8,1.2-6.3-4.5-7.9c-5.7-1.6-8.1,2.3-8.1,2.3L409.8,13.8z
			 M378.6,16.8c4.8-4.1,11-6.5,17.8-6.5c3,0,5.9,0.5,8.6,1.4c-1.7,4-4.8,10.6-9.2,17.9C388.5,41.5,385.2,42,385.2,42
			s0.9-9.9,0.6-11.2c-0.4-1.3-1.6-3.7-5.4-3.7c-3.8,0-7.5,4.4-7.5,4.4v-1.1c0-0.9,0.4-4.4,3-9.4C376.6,19.6,377.6,18.1,378.6,16.8z"
			/>
		<path fill="#1D1D1B" d="M435.3,73.4h0.9v0.9h-0.9V73.4z M441.4,76.5c0,0,0-0.1,0-0.2c0.1-0.8,0.9-1.1,1.6-1.1
			c1.5,0,1.6,1.3,1.6,1.6v2.4c0,0.4,0.2,0.4,0.6,0.5l0,0.6l-0.4-0.1c-0.4-0.1-0.6-0.2-0.8-0.5c-0.4,0.4-0.8,0.6-1.3,0.6
			c-1.1,0-1.7-0.3-1.7-1.4c0-1.6,1.7-1.4,2.7-1.7l0.2-0.1v-0.2c0-0.2-0.1-1-1-1c-0.4,0-1.1,0.2-1,0.7L441.4,76.5z M444.1,78.7l0-1.1
			c-0.3,0.1-0.7,0.2-1.1,0.2c-0.7,0-1.3,0.3-1.3,0.9c0,0.7,0.2,0.8,1.1,0.8C443.7,79.6,444.1,78.8,444.1,78.7z M434.8,75.3h1.2l0,4
			c0,0.2,0.4,0.4,0.9,0.3l0,0.5c0,0-0.1,0.1-0.3,0.1c-0.5,0-1.3-0.3-1.2-0.9v-3.4h-0.6V75.3z M407.6,77.6c-0.3,0.1-0.7,0.2-1.1,0.2
			c-0.7,0-1.3,0.3-1.3,0.9c0,0.7,0.2,0.8,1.1,0.8c0.9,0,1.2-0.8,1.3-0.9L407.6,77.6z M407.6,79.6c-0.4,0.4-0.8,0.6-1.3,0.6
			c-1.1,0-1.7-0.3-1.7-1.4c0-1.6,1.7-1.4,2.7-1.7l0.2-0.1v-0.2c0-0.2-0.1-1-1-1c-0.4,0-1.1,0.1-1.1,0.7l-0.6,0c0,0,0-0.1,0-0.2
			c0.1-0.8,0.9-1.1,1.6-1.1c1.5,0,1.6,1.3,1.6,1.6v2.4c0,0.4,0.2,0.4,0.6,0.5l0,0.6l-0.3-0.1C408,80,407.8,79.9,407.6,79.6z
			 M412.7,75.4h0.7V74h0.6l0,1.4h1V76l-1,0l0,3c0.1,0.5,0.6,0.7,1,0.6l0.2,0.5c-0.9,0.3-1.9-0.3-1.9-1.1v-3l-0.7,0V75.4z
			 M420.1,77.2h3.1c0-0.5-0.3-1.4-1.6-1.4C420.8,75.8,420.3,76.4,420.1,77.2z M420,77.8c0,0.8,0.4,1.6,1.3,1.6c0.5,0,1.5,0,1.7-0.6
			l0.6,0c0,0,0,0.1,0,0.2c-0.5,1.6-4.5,1.7-4.2-1.4c0.1-1.1,0.8-2.3,2.2-2.3c1.7,0,2.3,1.2,2.2,2.6H420z M400.5,80c0,0-0.2,0-0.4,0
			c-0.6-0.1-0.8-0.3-1-0.9l-0.3-4.3l-2.1,3.7h-0.3l-2.1-3.7l-0.3,4.3c0,0,0,0.1-0.1,0.3c-0.3,0.5-0.8,0.6-1.3,0.6l0-0.6
			c0.4,0,0.7,0,0.8-0.4l0.4-5.6h0.4l2.4,4.2l2.4-4.2h0.4l0.4,5.6c0.1,0.4,0.4,0.4,0.8,0.4L400.5,80z M378.1,75.9
			c-0.2-0.3-0.5-0.2-0.5-0.2l0-0.6c0,0,0.6,0.2,0.9,0.4c0.1,0.1,0.2,0.3,0.2,0.5c0.5-0.4,1.1-0.8,1.8-0.9l0,0.7
			c-0.6,0-1.7,0.7-1.7,1.2c0,0.1,0,3.1,0,3.1h-0.6v-3.1c0-0.2,0-0.4,0-0.6C378.1,76.2,378.1,76,378.1,75.9z M385.1,77.2h3.1
			c0-0.5-0.3-1.4-1.6-1.4C385.9,75.8,385.3,76.4,385.1,77.2z M385.1,77.8c0,0.8,0.4,1.6,1.3,1.6c0.5,0,1.5,0,1.7-0.6l0.6,0l0,0.2
			c-0.5,1.6-4.5,1.7-4.2-1.4c0.1-1.1,0.8-2.3,2.2-2.3c1.7,0,2.3,1.2,2.2,2.6H385.1z M371.1,73.6l2.3,5.8c0.1,0.1,0.2,0.2,0.3,0.2
			l0.2,0.6c0,0-0.1,0-0.2,0c-0.4,0-0.8-0.2-0.9-0.5l-0.7-1.7h-2.7l-0.7,1.7c0,0,0,0.1-0.1,0.2c-0.2,0.2-0.5,0.3-0.8,0.3
			c-0.1,0-0.2,0-0.2,0l0.1-0.6c0.2,0,0.4,0,0.4-0.2l2.3-5.8l0.3,0L371.1,73.6z M371.9,77.3l-1.1-2.8l-1.1,2.8H371.9z M360,77.2h3.1
			c0-0.5-0.3-1.4-1.6-1.4C360.7,75.8,360.2,76.4,360,77.2z M359.9,77.8c0,0.8,0.4,1.6,1.3,1.6c0.5,0,1.5,0,1.7-0.6l0.6,0l0,0.2
			c-0.5,1.6-4.5,1.7-4.2-1.4c0.1-1.1,0.8-2.3,2.2-2.3c1.7,0,2.3,1.2,2.2,2.6H359.9z M356,73.9c-0.3,0-0.6,0-0.7,0.3l-1.5,5.9h-0.4
			l-1.8-5.4l-1.8,5.4h-0.4l-1.5-5.9c0-0.1-0.1-0.2-0.1-0.3c-0.1-0.1-0.4-0.1-0.5-0.1v-0.6c0,0,0.2,0,0.4,0c0.5,0.1,0.8,0.3,0.9,0.8
			l1.2,4.5l1.7-5.1l0.3,0l0.3,0l1.7,5.1l1.2-4.5c0.2-0.7,0.6-0.8,1.2-0.8V73.9z M428.6,75.9c-0.2-0.3-0.5-0.2-0.5-0.2l0-0.6
			c0,0,0.6,0.2,0.9,0.4c0.1,0.1,0.2,0.3,0.2,0.5c0.5-0.4,1.1-0.8,1.8-0.9l0,0.7c-0.6,0-1.7,0.7-1.7,1.2c0,0.1,0,3.1,0,3.1h-0.6v-3.1
			c0-0.2,0-0.4,0-0.6C428.6,76.2,428.6,76,428.6,75.9z"/>
	</g>
	<g>
		<text transform="matrix(1 0 0 1 636.3424 80.2413)" fill="#1D1D1B" font-family="'BaseNine'" font-size="11.0835">www.wearemateria.com</text>
		<text transform="matrix(1 0 0 1 12.0378 80.2413)" fill="#1D1D1B" font-family="'BaseNine'" font-size="11.0835">ask@wearemateria.com</text>
	</g>
</g>
</svg>
